<?xml version="1.0" encoding="UTF-8"?>
<svg id="Layer_2" data-name="Layer 2" xmlns="http://www.w3.org/2000/svg" viewBox="0 0 165.33 69.42">
  <defs>
    <style>
      .cls-1 {
        fill: #231f20;
      }
    </style>
  </defs>
  <g id="Layer_1-2" data-name="Layer 1">
    <g>
      <path class="cls-1" d="M89.38.49c2.77-1.36,4.5.28,4,2.55,0,0-1.21,31.55-1.21,31.55,0,0-59.84,1.9-89.77,2.88-2.54.5-3.53-2.37-.66-3.35"/>
      <path class="cls-1" d="M76.07,68.94c-2.75,1.37-4.57-.46-4.15-2.91,0,0,.03-34.15.03-34.15,0,0,60.58.04,90.88.04,2.55-.45,3.67,2.69.8,3.65"/>
      <path class="cls-1" d="M93.38,3.05s-2.01,28.85,3.79,28.85-25.3,34.71-25.3,34.71c0,0,1.01-31.2-5.03-31.2S93.38,3.05,93.38,3.05Z"/>
    </g>
  </g>
</svg>