<?xml version="1.0" encoding="UTF-8"?>
<svg id="Layer_2" xmlns="http://www.w3.org/2000/svg" viewBox="0 0 165.41 58.77">
  <defs>
    <style>
      .cls-1 {
        fill: #231f20;
      }

      .cls-2 {
        fill: none;
        stroke: #231f20;
        stroke-linecap: round;
        stroke-miterlimit: 10;
        stroke-width: 4px;
      }
    </style>
  </defs>
  <g id="Layer_1-2" data-name="Layer_1">
    <g>
      <path class="cls-2" d="M76.14,30.82c-6.13,0-11.1-5.87-11.1-13.1,0-7.24,4.97-13.1,11.1-13.1"/>
      <path class="cls-2" d="M40.3,30.82c-3.81,0-6.89-3.31-6.89-7.4s3.09-7.4,6.89-7.4"/>
      <path class="cls-2" d="M131.65,32.54s-2.79-3.41-7.4-1.52c-3.92,1.65-2.67,5.23,0,6.04,3.05.91,8.11-.19,8.17,3.66,0,3.67-5.54,3.66-5.54,3.66,0,0-3.91.22-5.19-1.72"/>
      <path class="cls-2" d="M85.61,2s-7.91,61.83,7.15,54.1"/>
      <path class="cls-2" d="M96.4,32.16s-4.6,17.12,7.15,19.37,9.19-16.81,7.66-19.78"/>
      <path class="cls-2" d="M48.57,27.12s.26,5.23,4.6,4.98,7.02-6.89,3.06-20.43c-.71-2.43,4.21,9.06-3.06,9.45s-4.98-7.66-4.98-7.66"/>
      <path class="cls-1" d="M136.2,28.56l27.04.03c2.52.05,2.99,2.42.69,3.43l-24.94,10.43s1.83-3.62,1.07-7.44-3.85-6.46-3.85-6.46Z"/>
      <path class="cls-1" d="M29.21,32.8l-27.04-.03c-2.52-.05-2.99-2.42-.69-3.43l24.94-10.43s-1.83,3.62-1.07,7.44,3.85,6.46,3.85,6.46Z"/>
    </g>
  </g>
</svg>